<svg width="638" height="638" viewBox="0 0 638 638" fill="none" xmlns="http://www.w3.org/2000/svg">
    <path
        d="M536.511 289.931L169.532 534.626C146.556 549.946 115.512 543.74 100.193 520.764L87.4246 501.615L46.918 440.866C22.3092 403.959 9.82874 381.962 12.7432 355.229C14.6258 337.96 30.5052 326.758 47.4984 323.156C69.7468 318.44 88.6232 312.945 104.7 306.224C135.004 293.555 155.36 276.527 169.599 252.14C145.044 234.861 133.202 222.1 130.697 199.27C129.6 189.28 137.912 181.179 147.936 180.457L194.137 177.127L247.49 173.282L310.937 168.709L374.384 164.136L449.045 158.755C533.664 103.532 563.378 104.266 605.733 148.25L613.647 157.538C631.458 178.44 629.077 209.795 608.315 227.769L536.511 289.931Z"
        fill="white" />
    <path
        d="M449.045 158.755C533.664 103.532 563.378 104.266 605.733 148.25M449.045 158.755L247.49 173.282M449.045 158.755L456.922 266.076M194.137 177.127L147.936 180.457C137.912 181.179 129.6 189.28 130.697 199.27C133.202 222.1 145.044 234.861 169.599 252.14M194.137 177.127C188.599 207.978 181.091 232.457 169.599 252.14M194.137 177.127L247.49 173.282M46.918 440.866C46.918 440.866 86.8922 414.212 112.506 397.133L104.7 306.224M46.918 440.866L87.4246 501.615M46.918 440.866C22.3092 403.959 9.82874 381.962 12.7432 355.229C14.6258 337.96 30.5052 326.758 47.4984 323.156C69.7468 318.44 88.6232 312.945 104.7 306.224M87.4246 501.615L100.193 520.764C115.512 543.74 146.556 549.946 169.532 534.626L536.511 289.931L608.315 227.769C629.077 209.795 631.457 178.44 613.647 157.538L605.733 148.25M87.4246 501.615L311.068 352.494L485.97 249.075L605.733 148.25M104.7 306.224C135.004 293.555 155.36 276.527 169.599 252.14M251.646 214.456L247.49 173.282M315.093 209.883C313.75 196.043 310.937 168.709 310.937 168.709M378.54 205.311L374.384 164.136"
        stroke="black" stroke-width="18" stroke-linecap="round" stroke-linejoin="round" />
</svg>
