<svg width="15" height="15" viewBox="0 0 15 15" fill="none" xmlns="http://www.w3.org/2000/svg">
    <path
        d="M6.54059 0.727829C6.84258 -0.24261 8.15741 -0.242609 8.45939 0.727829L9.53831 4.19516C9.67338 4.62915 10.0608 4.92298 10.4977 4.92298H13.9893C14.9665 4.92298 15.3728 6.22871 14.5823 6.82847L11.7575 8.97139C11.4039 9.23961 11.256 9.71505 11.391 10.149L12.47 13.6163C12.7719 14.5868 11.7083 15.3938 10.9177 14.7941L8.09293 12.6511C7.73937 12.3829 7.26061 12.3829 6.90705 12.6511L4.08232 14.7941C3.29174 15.3938 2.22802 14.5868 2.52999 13.6163L3.60894 10.149C3.74399 9.71505 3.59605 9.23961 3.24248 8.97139L0.417763 6.82847C-0.372823 6.22871 0.0334846 4.92298 1.0107 4.92298H4.50225C4.93927 4.92298 5.3266 4.62915 5.46164 4.19516L6.54059 0.727829Z"
        fill="#F14F4F" />
</svg>
