<svg width="20" height="20" viewBox="0 0 30 30" fill="none" xmlns="http://www.w3.org/2000/svg">
<path d="M28.9999 11.2857H24.2454L19.2502 2.45068C19.0025 2.01181 18.465 1.86852 18.0497 2.1324C17.6353 2.39629 17.5011 2.96664 17.7498 3.40646L22.2046 11.2857H7.79543L12.2502 3.40639C12.4989 2.96658 12.3647 2.39623 11.9503 2.13234C11.5342 1.86845 10.9984 2.01175 10.7498 2.45062L5.75464 11.2857H1V13.1428H2.89911L5.12206 25.7266C5.35446 27.0442 6.43966 28 7.70265 28H22.2974C23.5603 28 24.6455 27.0442 24.8771 25.7275L27.1008 13.1428H29L28.9999 11.2857ZM23.1569 25.3857C23.08 25.8246 22.7186 26.1429 22.2973 26.1429H7.70265C7.28138 26.1429 6.91996 25.8246 6.84219 25.3848L4.67904 13.1428H25.321L23.1569 25.3857Z" fill="white"/>
</svg>
